<svg class="icon"  xmlns="http://www.w3.org/2000/svg">
    <symbol id="logo" width="59" height="62" viewBox="0 0 59 62" fill="none" xmlns="http://www.w3.org/2000/svg">
        <path d="M56.45 35.55V19.5L29.45 3L2 19.5V60H56.45V51.75" stroke="white" stroke-width="4"/>
        <rect x="24.5" y="18.6001" width="4.30345" height="4.30345" fill="white"/>
        <rect x="29.7966" y="18.6001" width="4.30345" height="4.30345" fill="white"/>
        <rect x="24.5" y="23.8965" width="4.30345" height="4.30345" fill="white"/>
        <rect x="29.7966" y="23.8965" width="4.30345" height="4.30345" fill="white"/>
    </symbol>
    <symbol id="user-profile" xmlns="http://www.w3.org/2000/svg" width="20px" height="20px" viewBox="0 0 512.000000 512.000000">
        <g transform="translate(0.000000,512.000000) scale(0.100000,-0.100000)" fill="#ffff" stroke="none">
            <path d="M2379 4895 c-303 -49 -541 -173 -744 -386 -169 -177 -279 -388 -332
            -639 -24 -117 -24 -363 0 -480 61 -290 196 -526 410 -718 l58 -52 -38 -16
            c-93 -39 -247 -122 -348 -189 -490 -323 -821 -828 -927 -1415 -25 -140 -38
            -577 -19 -641 15 -50 53 -94 105 -122 l41 -22 1975 0 1975 0 45 25 c24 14 58
            44 75 68 l30 44 3 211 c4 251 -12 405 -64 607 -131 513 -456 966 -899 1256
            -85 55 -262 150 -333 177 l-43 17 60 51 c61 50 162 166 218 249 80 118 156
            303 190 463 25 116 25 380 -1 497 -56 260 -167 463 -355 651 -191 191 -393
            300 -656 354 -111 23 -319 28 -426 10z m416 -450 c285 -83 504 -303 587 -591
            20 -68 23 -101 22 -234 0 -142 -2 -162 -28 -240 -50 -150 -99 -233 -205 -344
            -110 -114 -248 -195 -406 -237 -113 -29 -299 -30 -410 0 -323 86 -566 340
            -630 660 -23 112 -16 294 15 401 75 261 282 481 537 571 158 56 356 62 518 14z
            m64 -2126 c366 -62 739 -271 980 -550 260 -300 396 -636 426 -1046 l5 -83
            -1710 0 c-1361 0 -1710 3 -1710 13 0 60 24 259 40 334 139 665 659 1184 1326
            1324 204 42 425 45 643 8z"/>
        </g>
    </symbol>
    <symbol id="search-icon" xmlns="http://www.w3.org/2000/svg" width="20px" height="20px" viewBox="0 0 512.000000 512.000000" preserveAspectRatio="xMidYMid meet">
        <g transform="translate(0.000000,512.000000) scale(0.100000,-0.100000)" fill="#ffff" stroke="none">
        <path d="M1882 4674 c-539 -78 -1019 -423 -1268 -911 -124 -244 -184 -495
        -184 -778 0 -267 50 -490 166 -733 185 -390 509 -693 911 -852 525 -206 1116
        -141 1579 175 l92 62 583 -584 c387 -386 598 -590 625 -603 92 -45 210 -15
        269 68 40 58 47 151 16 214 -14 30 -198 220 -605 627 l-584 583 64 95 c409
        602 388 1391 -52 1980 -82 109 -252 276 -364 356 -101 71 -333 192 -437 226
        -101 34 -212 60 -318 76 -122 18 -365 18 -493 -1z m377 -414 c579 -60 1040
        -494 1136 -1069 14 -80 16 -137 12 -255 -7 -198 -44 -348 -124 -511 -169 -341
        -477 -589 -848 -682 -139 -35 -360 -43 -506 -18 -270 45 -508 167 -697 358
        -132 134 -206 241 -274 398 -207 481 -99 1039 272 1409 211 211 479 339 773
        370 108 11 145 11 256 0z"/>
        </g>
    </symbol>
    <symbol id="question-icon" width="29px" height="29px" viewBox="0 0 512.000000 512.000000">
        <g transform="translate(0.000000,512.000000) scale(0.100000,-0.100000)"
        fill="#4a973e" stroke="none">
        </g>
    </symbol>
    <symbol id="star" width="15" height="14" viewBox="0 0 15 14" fill="none" xmlns="http://www.w3.org/2000/svg">
        <path d="M7.5 0L9.18386 5.18237H14.6329L10.2245 8.38525L11.9084 13.5676L7.5 10.3647L3.09161 13.5676L4.77547 8.38525L0.367076 5.18237H5.81614L7.5 0Z" fill="#EDDB3D"/>
    </symbol>
    <symbol id="arrow-next" width="27" height="16" xmlns="http://www.w3.org/2000/svg">
        <path fill="#fff" d="M26.7071 8.70711C27.0976 8.31658 27.0976 7.68342 26.7071 7.2929L20.3431 0.928934C19.9526 0.53841 19.3195 0.538409 18.9289 0.928934C18.5384 1.31946 18.5384 1.95262 18.9289 2.34315L24.5858 8L18.9289 13.6569C18.5384 14.0474 18.5384 14.6805 18.9289 15.0711C19.3195 15.4616 19.9526 15.4616 20.3431 15.0711L26.7071 8.70711ZM-8.74228e-08 9L26 9L26 7L8.74228e-08 7L-8.74228e-08 9Z"/>
    </symbol>
    <symbol id="arrow-prev" width="16" height="8" viewBox="0 0 16 8" xmlns="http://www.w3.org/2000/svg">
        <path d="M0.646445 3.64645C0.451183 3.84171 0.451183 4.15829 0.646445 4.35355L3.82843 7.53553C4.02369 7.7308 4.34027 7.7308 4.53553 7.53553C4.73079 7.34027 4.73079 7.02369 4.53553 6.82843L1.70711 4L4.53553 1.17157C4.73079 0.976311 4.73079 0.659728 4.53553 0.464466C4.34027 0.269204 4.02369 0.269204 3.82843 0.464466L0.646445 3.64645ZM16 3.5L0.999999 3.5V4.5L16 4.5V3.5Z"/>
    </symbol>
    <symbol id="google-icon" xmlns="http://www.w3.org/2000/svg" width="20px" height="20px" viewBox="0 0 512.000000 512.000000" preserveAspectRatio="xMidYMid meet">
        <g transform="translate(0.000000,512.000000) scale(0.100000,-0.100000)"
        fill="#fff" stroke="none">
        <path d="M2385 5109 c-1215 -125 -2165 -1062 -2306 -2274 -14 -129 -14 -421 0
        -550 68 -584 325 -1118 737 -1530 586 -587 1418 -856 2224 -719 981 167 1747
        932 1959 1959 35 174 51 341 53 585 l3 235 -1087 3 -1088 2 0 -320 0 -320 756
        0 756 0 -7 -33 c-122 -602 -467 -1071 -974 -1323 -699 -347 -1567 -190 -2142
        388 -581 584 -728 1459 -367 2182 104 207 210 355 367 514 444 445 1067 648
        1671 543 347 -60 671 -228 935 -483 l81 -77 229 230 230 230 -70 67 c-373 358
        -869 602 -1375 677 -127 19 -461 27 -585 14z"/>
        </g>
    </symbol>
    <symbol id="vk-icon" xmlns="http://www.w3.org/2000/svg" xmlns:xlink="http://www.w3.org/1999/xlink" x="0px" y="0px" viewBox="0 0 1000 1000" enable-background="new 0 0 1000 1000" xml:space="preserve">
        <g><g id="e6c6b53d3c8160b22dad35a0f710525a"><path fill="#fff" d="M985.9,763.3c-11.3,12.8-41.5,15.6-41.5,15.6h-161c0,0-22.5,5.3-62.3-36.4c-27.4-28.6-55.5-70.8-77.9-88.3c-13.4-10.5-26-5.2-26-5.2s-23.5,1.1-26,26c-4.4,43.6-10.4,67.5-10.4,67.5s-2.9,18.4-10.4,26c-8,8-20.8,10.4-20.8,10.4S327.4,829,154.9,550.3C30.4,349.3,14.7,290.7,14.7,290.7s-10.6-14.2,0-31.2c11.1-17.9,26-15.6,26-15.6h145.4c0,0,16.1,1.7,26,10.4c10.8,9.5,15.6,26,15.6,26s31.9,77.1,67.5,135c49.3,80.1,72.7,72.7,72.7,72.7s42.5-11.8,15.6-192.2c-3.7-24.9-51.9-31.2-51.9-31.2s-0.4-21.5,10.4-31.2c12.4-11,26-10.4,26-10.4s21.6-3.8,98.7-5.2c39-0.7,67.5,0,67.5,0s19-0.6,41.5,15.6c10.9,7.8,10.4,26,10.4,26s-4.6,130.1,0,197.4c2,28.9,15.6,31.2,15.6,31.2s14.6,11.3,72.7-72.7c36.8-53.2,67.5-129.8,67.5-129.8s7.6-21.9,15.6-31.2c7.6-8.9,20.8-10.4,20.8-10.4h187c0,0,11.5-0.4,15.6,10.4c3.7,9.9,0,31.2,0,31.2s-2,23.5-20.8,51.9C915.7,404.5,830.1,514,830.1,514s-6.4,14.9-5.2,26c1.4,12.2,10.4,20.8,10.4,20.8s64.5,58.4,109.1,109.1c24.1,27.4,41.5,62.3,41.5,62.3S995.1,752.9,985.9,763.3z"/></g></g>
    </symbol>
    <symbol id="icon-input-username" width="21px" height="21px" viewBox="0 0 512.000000 512.000000">
        <g transform="translate(0.000000,512.000000) scale(0.100000,-0.100000)"
        fill="#808080" stroke="none">
            <path d="M2464 4629 c-488 -35 -905 -413 -1000 -908 -19 -98 -19 -304 0 -402
            75 -393 347 -711 723 -849 114 -41 230 -61 364 -61 183 -1 316 30 477 108 330
            160 569 475 632 832 16 88 14 281 -4 372 -65 339 -281 630 -582 786 -195 101
            -380 138 -610 122z"/>
            <path d="M1484 2412 c-596 -358 -987 -1031 -995 -1709 -1 -84 2 -109 18 -135
            27 -46 75 -76 136 -83 29 -3 912 -5 1962 -3 1889 3 1910 3 1944 23 42 25 71
            63 80 104 10 52 -6 284 -29 404 -71 375 -224 692 -474 984 -139 163 -347 337
            -514 430 l-64 36 -26 -22 c-226 -182 -419 -280 -667 -336 -111 -26 -400 -31
            -527 -11 -121 20 -305 79 -409 131 -91 46 -216 128 -287 189 -30 25 -57 46
            -61 46 -4 0 -43 -21 -87 -48z"/>
        </g>
    </symbol>
    <symbol id="icon-input-number" width="21px" height="21px" viewBox="0 0 512.000000 512.000000">
        <g transform="translate(0.000000,512.000000) scale(0.100000,-0.100000)"
        fill="#808080" stroke="none">
            <path d="M792 5108 c-29 -4 -71 -17 -92 -28 -47 -24 -391 -349 -470 -445 -169
            -204 -244 -474 -219 -792 57 -711 577 -1621 1395 -2437 821 -819 1727 -1339
            2434 -1394 118 -10 288 -1 376 18 154 34 307 106 419 200 79 65 392 390 429
            444 50 73 62 183 30 279 -15 48 -51 86 -473 510 -338 340 -469 465 -506 484
            -72 38 -170 42 -250 12 -52 -19 -81 -43 -231 -189 -182 -179 -235 -215 -352
            -239 -162 -34 -290 6 -547 169 -430 274 -773 618 -1041 1046 -162 257 -197
            373 -163 536 24 117 60 170 239 352 146 150 170 179 189 231 30 80 26 178 -12
            250 -35 69 -914 947 -971 970 -57 24 -123 32 -184 23z"/>
        </g>
    </symbol>
    <symbol id="top-filter" xmlns="http://www.w3.org/2000/svg" width="27px" height="27px" viewBox="0 0 512.000000 512.000000">
        <g transform="translate(0.000000,512.000000) scale(0.100000,-0.100000)" fill="#000000" stroke="none">
            <path d="M3282 4691 c-137 -48 -212 -168 -212 -338 l0 -53 -1285 0 c-1410 0
            -1329 4 -1355 -59 -17 -42 -5 -95 27 -121 26 -20 32 -20 1318 -20 l1292 0 6
            -89 c7 -117 33 -176 104 -241 84 -77 110 -82 430 -78 l268 3 51 27 c57 30 119
            93 142 147 9 20 18 78 21 131 l6 95 263 5 264 5 24 28 c26 30 32 83 14 118
            -24 44 -54 49 -320 49 l-250 0 0 88 c0 79 -3 96 -30 150 -35 68 -82 115 -149
            146 -43 19 -66 21 -311 24 -237 2 -271 0 -318 -17z m579 -219 l29 -32 0 -243
            c0 -214 -2 -244 -18 -263 -33 -41 -52 -44 -287 -44 -239 0 -271 5 -295 49 -16
            31 -13 501 4 523 34 45 58 49 304 46 l234 -3 29 -33z"/>
            <path d="M1653 3056 c-85 -27 -159 -91 -191 -165 -9 -20 -18 -79 -21 -131 l-6
            -95 -472 -5 -473 -5 -27 -27 c-38 -39 -38 -97 0 -136 l27 -27 473 -5 472 -5 5
            -95 c8 -145 61 -229 179 -284 44 -20 61 -21 331 -21 l285 0 51 27 c52 28 112
            86 138 135 18 36 36 132 36 195 l0 48 1085 0 1085 0 32 29 c27 24 33 36 33 71
            0 35 -6 47 -33 71 l-32 29 -1085 0 -1085 0 0 48 c0 63 -18 159 -36 195 -26 49
            -86 107 -138 135 l-51 27 -270 2 c-203 2 -280 -1 -312 -11z m540 -197 c55 -28
            57 -34 57 -299 0 -217 -2 -247 -18 -266 -33 -41 -52 -44 -287 -44 -246 0 -270
            5 -294 57 -15 32 -15 474 0 506 24 52 45 56 292 57 149 0 236 -4 250 -11z"/>
            <path d="M2868 1414 c-63 -19 -149 -99 -177 -163 -13 -32 -23 -83 -28 -141
            l-6 -90 -1079 0 c-1182 0 -1122 3 -1148 -59 -16 -39 -5 -82 26 -112 l26 -24
            1087 -3 1088 -2 6 -83 c3 -45 13 -103 22 -129 23 -64 84 -131 153 -165 l57
            -28 280 0 c264 0 283 1 326 21 67 31 114 78 149 146 27 54 30 71 30 149 l0 88
            474 3 474 3 26 24 c33 31 42 80 22 119 -8 16 -23 33 -33 38 -10 5 -229 11
            -488 14 l-470 5 -6 95 c-3 53 -12 111 -21 131 -23 54 -85 117 -142 147 l-51
            27 -275 2 c-219 2 -285 -1 -322 -13z m555 -195 c55 -28 57 -35 57 -296 l0
            -243 -29 -32 -29 -33 -246 0 -245 0 -30 29 -31 30 0 244 c0 147 4 251 10 262
            24 44 52 49 293 50 149 0 236 -4 250 -11z"/>
        </g>
    </symbol>
</svg>