<svg class="icon"  xmlns="http://www.w3.org/2000/svg">
    <symbol id="logo" width="59" height="62" viewBox="0 0 59 62" fill="none" xmlns="http://www.w3.org/2000/svg">
        <path d="M56.45 35.55V19.5L29.45 3L2 19.5V60H56.45V51.75" stroke="white" stroke-width="4"/>
        <rect x="24.5" y="18.6001" width="4.30345" height="4.30345" fill="white"/>
        <rect x="29.7966" y="18.6001" width="4.30345" height="4.30345" fill="white"/>
        <rect x="24.5" y="23.8965" width="4.30345" height="4.30345" fill="white"/>
        <rect x="29.7966" y="23.8965" width="4.30345" height="4.30345" fill="white"/>
    </symbol>
    <symbol id="user-profile" xmlns="http://www.w3.org/2000/svg" width="20px" height="20px" viewBox="0 0 512.000000 512.000000">
        <g transform="translate(0.000000,512.000000) scale(0.100000,-0.100000)" fill="#ffff" stroke="none">
            <path d="M2379 4895 c-303 -49 -541 -173 -744 -386 -169 -177 -279 -388 -332
            -639 -24 -117 -24 -363 0 -480 61 -290 196 -526 410 -718 l58 -52 -38 -16
            c-93 -39 -247 -122 -348 -189 -490 -323 -821 -828 -927 -1415 -25 -140 -38
            -577 -19 -641 15 -50 53 -94 105 -122 l41 -22 1975 0 1975 0 45 25 c24 14 58
            44 75 68 l30 44 3 211 c4 251 -12 405 -64 607 -131 513 -456 966 -899 1256
            -85 55 -262 150 -333 177 l-43 17 60 51 c61 50 162 166 218 249 80 118 156
            303 190 463 25 116 25 380 -1 497 -56 260 -167 463 -355 651 -191 191 -393
            300 -656 354 -111 23 -319 28 -426 10z m416 -450 c285 -83 504 -303 587 -591
            20 -68 23 -101 22 -234 0 -142 -2 -162 -28 -240 -50 -150 -99 -233 -205 -344
            -110 -114 -248 -195 -406 -237 -113 -29 -299 -30 -410 0 -323 86 -566 340
            -630 660 -23 112 -16 294 15 401 75 261 282 481 537 571 158 56 356 62 518 14z
            m64 -2126 c366 -62 739 -271 980 -550 260 -300 396 -636 426 -1046 l5 -83
            -1710 0 c-1361 0 -1710 3 -1710 13 0 60 24 259 40 334 139 665 659 1184 1326
            1324 204 42 425 45 643 8z"/>
        </g>
    </symbol>
    <symbol id="search-icon" xmlns="http://www.w3.org/2000/svg" width="20px" height="20px" viewBox="0 0 512.000000 512.000000"
        preserveAspectRatio="xMidYMid meet">
        <g transform="translate(0.000000,512.000000) scale(0.100000,-0.100000)" fill="#ffff" stroke="none">
        <path d="M1882 4674 c-539 -78 -1019 -423 -1268 -911 -124 -244 -184 -495
        -184 -778 0 -267 50 -490 166 -733 185 -390 509 -693 911 -852 525 -206 1116
        -141 1579 175 l92 62 583 -584 c387 -386 598 -590 625 -603 92 -45 210 -15
        269 68 40 58 47 151 16 214 -14 30 -198 220 -605 627 l-584 583 64 95 c409
        602 388 1391 -52 1980 -82 109 -252 276 -364 356 -101 71 -333 192 -437 226
        -101 34 -212 60 -318 76 -122 18 -365 18 -493 -1z m377 -414 c579 -60 1040
        -494 1136 -1069 14 -80 16 -137 12 -255 -7 -198 -44 -348 -124 -511 -169 -341
        -477 -589 -848 -682 -139 -35 -360 -43 -506 -18 -270 45 -508 167 -697 358
        -132 134 -206 241 -274 398 -207 481 -99 1039 272 1409 211 211 479 339 773
        370 108 11 145 11 256 0z"/>
        </g>
    </symbol>
    <symbol id="question-icon" width="29px" height="29px" viewBox="0 0 512.000000 512.000000">
        <g transform="translate(0.000000,512.000000) scale(0.100000,-0.100000)"
        fill="#4a973e" stroke="none">
        </g>
    </symbol>
    <symbol id="star" width="15" height="14" viewBox="0 0 15 14" fill="none" xmlns="http://www.w3.org/2000/svg">
        <path d="M7.5 0L9.18386 5.18237H14.6329L10.2245 8.38525L11.9084 13.5676L7.5 10.3647L3.09161 13.5676L4.77547 8.38525L0.367076 5.18237H5.81614L7.5 0Z" fill="#EDDB3D"/>
  </symbol>
  <symbol id="arrow" width="27" height="16" viewBox="0 0 27 16" fill="none" xmlns="http://www.w3.org/2000/svg">
    <path d="M26.7071 8.70711C27.0976 8.31658 27.0976 7.68342 26.7071 7.2929L20.3431 0.928934C19.9526 0.53841 19.3195 0.538409 18.9289 0.928934C18.5384 1.31946 18.5384 1.95262 18.9289 2.34315L24.5858 8L18.9289 13.6569C18.5384 14.0474 18.5384 14.6805 18.9289 15.0711C19.3195 15.4616 19.9526 15.4616 20.3431 15.0711L26.7071 8.70711ZM-8.74228e-08 9L26 9L26 7L8.74228e-08 7L-8.74228e-08 9Z" fill="black"/>
  </symbol>
</svg>